<svg width="20" height="20" viewBox="0 0 20 20" fill="none" xmlns="http://www.w3.org/2000/svg">
<path d="M10 0C8.02219 0 6.08879 0.58649 4.4443 1.6853C2.79981 2.78412 1.51809 4.3459 0.761209 6.17316C0.00433284 8.00042 -0.1937 10.0111 0.192152 11.9509C0.578004 13.8907 1.53041 15.6725 2.92894 17.0711C4.32746 18.4696 6.10929 19.422 8.0491 19.8078C9.98891 20.1937 11.9996 19.9957 13.8268 19.2388C15.6541 18.4819 17.2159 17.2002 18.3147 15.5557C19.4135 13.9112 20 11.9778 20 10C20 8.68678 19.7413 7.38642 19.2388 6.17316C18.7362 4.95991 17.9997 3.85752 17.0711 2.92893C16.1425 2.00035 15.0401 1.26375 13.8268 0.761204C12.6136 0.258658 11.3132 0 10 0ZM10 16.51C9.70333 16.51 9.41332 16.422 9.16665 16.2572C8.91997 16.0924 8.72772 15.8581 8.61418 15.584C8.50065 15.3099 8.47095 15.0083 8.52882 14.7174C8.5867 14.4264 8.72956 14.1591 8.93934 13.9493C9.14912 13.7396 9.4164 13.5967 9.70737 13.5388C9.99834 13.4809 10.2999 13.5106 10.574 13.6242C10.8481 13.7377 11.0824 13.93 11.2472 14.1766C11.412 14.4233 11.5 14.7133 11.5 15.01C11.5027 15.2087 11.4658 15.4059 11.3916 15.5902C11.3174 15.7745 11.2073 15.9422 11.0678 16.0836C10.9282 16.225 10.762 16.3373 10.5787 16.4139C10.3954 16.4906 10.1987 16.53 10 16.53V16.51ZM11.51 10C11.51 10.3978 11.352 10.7794 11.0707 11.0607C10.7894 11.342 10.4078 11.5 10.01 11.5C9.61218 11.5 9.23065 11.342 8.94934 11.0607C8.66804 10.7794 8.51 10.3978 8.51 10V5C8.51 4.60217 8.66804 4.22064 8.94934 3.93934C9.23065 3.65803 9.61218 3.5 10.01 3.5C10.4078 3.5 10.7894 3.65803 11.0707 3.93934C11.352 4.22064 11.51 4.60217 11.51 5V10Z" fill="url(#paint0_linear_2441_31260)"/>
<defs>
<linearGradient id="paint0_linear_2441_31260" x1="10" y1="0" x2="10" y2="20" gradientUnits="userSpaceOnUse">
<stop offset="1" stop-color="#E4443A"/>
</linearGradient>
</defs>
</svg>
